<svg xmlns="http://www.w3.org/2000/svg" xmlns:xlink="http://www.w3.org/1999/xlink" width="400" height="160" viewBox="0 0 400 160">
  <defs>
    <clipPath id="clip-path">
      <path id="Differenzmenge_5" data-name="Differenzmenge 5" d="M320,160H0V80A80.6,80.6,0,0,1,1.625,63.877,79.564,79.564,0,0,1,13.663,35.271,80.233,80.233,0,0,1,48.86,6.287,79.6,79.6,0,0,1,63.877,1.625,80.6,80.6,0,0,1,80,0H320a80.594,80.594,0,0,1,16.123,1.625,79.563,79.563,0,0,1,28.606,12.037,80.232,80.232,0,0,1,28.984,35.2,79.6,79.6,0,0,1,4.661,15.017,80.784,80.784,0,0,1,0,32.246,79.566,79.566,0,0,1-12.037,28.606,80.231,80.231,0,0,1-35.2,28.984,79.592,79.592,0,0,1-15.017,4.662A80.593,80.593,0,0,1,320,160ZM81,15A64.7,64.7,0,0,0,44.658,26.1a65.191,65.191,0,0,0-23.55,28.6A64.593,64.593,0,0,0,16,80v65H320a64.695,64.695,0,0,0,36.342-11.1,65.191,65.191,0,0,0,23.55-28.6A64.914,64.914,0,0,0,373.9,43.658a65.191,65.191,0,0,0-28.6-23.55A64.593,64.593,0,0,0,320,15Z" transform="translate(6105 1296)"/>
    </clipPath>
  </defs>
  <g id="Gruppe_6757" data-name="Gruppe 6757" transform="translate(-5851 -1890)">
    <path id="Pfad_9228" data-name="Pfad 9228" d="M70.507,0H308.5a71.5,71.5,0,0,1,0,143H0V70.507A70.507,70.507,0,0,1,70.507,0Z" transform="translate(5862 1899)" fill="#fff"/>
    <path id="Pfad_9229" data-name="Pfad 9229" d="M-128.2-54.225h2.681q2.156,0,5.025-.019t5.644,0q2.775.019,4.537.094,9.825.3,16.031,3.694a21.1,21.1,0,0,1,9.113,9.3,30.95,30.95,0,0,1,2.906,13.819,31.807,31.807,0,0,1-3.056,14.325,21.819,21.819,0,0,1-9.319,9.581Q-100.9,0-110.579,0H-128.2Zm12.825,10.162v33.9h5.175a15.418,15.418,0,0,0,7.05-1.687A13.009,13.009,0,0,0-97.7-17.325q2.119-3.787,2.119-10.162a21.213,21.213,0,0,0-1.8-9.338,12.024,12.024,0,0,0-5.063-5.456,15.8,15.8,0,0,0-7.687-1.781ZM-73.3,0V-54.225h38.662l-.075,10.65H-60.441v11.062H-38.5v10.425H-60.516v11.325l26.1.037V0Zm60.852.82A17.192,17.192,0,0,1-19.709-.615a11.022,11.022,0,0,1-4.817-4.1,11.635,11.635,0,0,1-1.7-6.4q0-7.093,4.735-10.434t15.437-3.67L2.759-25.5v-3.731A9.6,9.6,0,0,0,.073-36.367q-2.685-2.665-8.3-2.665a13.259,13.259,0,0,0-7.278,2.009,8.811,8.811,0,0,0-3.752,6.232h-4.879A13.111,13.111,0,0,1-22-37.433a11.96,11.96,0,0,1,5.433-4.285,22.068,22.068,0,0,1,8.589-1.5A21.414,21.414,0,0,1,.5-41.7,11.362,11.362,0,0,1,5.9-37.1a14.55,14.55,0,0,1,1.866,7.667V0H3.251L2.923-8.323A15.138,15.138,0,0,1-3.74-1.189,19.459,19.459,0,0,1-12.452.82Zm1.271-4.1a14.329,14.329,0,0,0,4.9-.882,17.5,17.5,0,0,0,4.49-2.4,13.78,13.78,0,0,0,3.3-3.383,6.8,6.8,0,0,0,1.25-3.833v-7.872l-7.38.164a37.253,37.253,0,0,0-9.553,1.128,9.878,9.878,0,0,0-5.269,3.2,8.906,8.906,0,0,0-1.66,5.6,7.357,7.357,0,0,0,2.747,6.089A11.152,11.152,0,0,0-11.181-3.28ZM31.09.41a10.418,10.418,0,0,1-4.448-.84,6.866,6.866,0,0,1-2.809-2.337A9.478,9.478,0,0,1,22.4-6.212a20.178,20.178,0,0,1-.41-4.161V-60.926h5.043V-10.66q0,3.69,1.394,5.371a4.393,4.393,0,0,0,3.4,1.722l2.419.041V-.082a10.179,10.179,0,0,1-1.66.369A11.107,11.107,0,0,1,31.09.41Zm29.4.41a19.405,19.405,0,0,1-9.881-2.44,16.429,16.429,0,0,1-6.581-7.3,27.664,27.664,0,0,1-2.358-12.116A29.722,29.722,0,0,1,43.78-32.7a16.961,16.961,0,0,1,6.293-7.749,18.554,18.554,0,0,1,10.455-2.767,18.849,18.849,0,0,1,9.8,2.48,16.467,16.467,0,0,1,6.5,7.4,28.838,28.838,0,0,1,2.316,12.3,29.311,29.311,0,0,1-2.07,11.439,16.767,16.767,0,0,1-6.191,7.667A18.355,18.355,0,0,1,60.487.82Zm.041-4.305a12.67,12.67,0,0,0,7.2-2.009,12.7,12.7,0,0,0,4.633-5.945,25.609,25.609,0,0,0,1.62-9.717,27.4,27.4,0,0,0-1.415-9.164,13.212,13.212,0,0,0-4.387-6.273,12.226,12.226,0,0,0-7.646-2.276,13.143,13.143,0,0,0-7.3,1.988,12.652,12.652,0,0,0-4.736,5.945,25.323,25.323,0,0,0-1.66,9.779,26.519,26.519,0,0,0,1.456,9.143A13.3,13.3,0,0,0,52.779-5.76,12.564,12.564,0,0,0,60.528-3.485Zm46.453,17.507q-9.266,0-14.658-2.911T86.932,2.46a7.761,7.761,0,0,1,1.025-4.08,10.753,10.753,0,0,1,2.48-2.87,21.462,21.462,0,0,1,2.706-1.886A15.407,15.407,0,0,0,94.8-7.421q-.738-.492-1.66-1.045a5.331,5.331,0,0,1-1.578-1.456,3.878,3.878,0,0,1-.656-2.337,4.476,4.476,0,0,1,1.743-3.383,12.257,12.257,0,0,1,5.1-2.4,15.158,15.158,0,0,1-5.535-4.838,11.559,11.559,0,0,1-2.05-6.683,12.622,12.622,0,0,1,2.009-7.134,12.91,12.91,0,0,1,5.9-4.694,24.609,24.609,0,0,1,9.635-1.66,21.368,21.368,0,0,1,6.847.964,17.358,17.358,0,0,1,5.248,2.89q.533-.246,1.886-.8t2.993-1.251q1.64-.7,3.034-1.271t2.009-.82L129.7-37.6l-7.462,1.517a15.426,15.426,0,0,1,1.189,3.157,13.1,13.1,0,0,1,.451,3.321,12.6,12.6,0,0,1-1.824,6.765,12.16,12.16,0,0,1-5.556,4.633,23.02,23.02,0,0,1-9.43,1.681h-.8a7.262,7.262,0,0,1-.8-.041q-5.453.123-7.482,1.189t-2.03,2.255q0,1.312,1.845,1.845a38.328,38.328,0,0,0,6.642.9q1.722.082,4.079.2t5.31.328q6.027.369,9.512,3.178a9.608,9.608,0,0,1,3.485,7.933,10.9,10.9,0,0,1-4.879,9.2Q117.067,14.022,106.981,14.022Zm.984-3.854q6.355,0,10.045-2.071a6.8,6.8,0,0,0,3.69-6.334,6.1,6.1,0,0,0-2.071-4.735q-2.07-1.865-6.375-2.153l-13.12-.82a6.549,6.549,0,0,0-3.321.9,10.141,10.141,0,0,0-3.3,2.788A6.526,6.526,0,0,0,92.1,1.886q0,3.772,3.895,6.027T107.965,10.168Zm-.738-30.5a14.27,14.27,0,0,0,8.466-2.3q3.219-2.3,3.218-6.97,0-4.879-3.218-7.3a13.737,13.737,0,0,0-8.466-2.419,14.146,14.146,0,0,0-8.651,2.439Q95.3-34.44,95.3-29.6a8.163,8.163,0,0,0,3.116,6.847Q101.528-20.336,107.227-20.336Z" transform="translate(6050.204 1997)"/>
    <g id="Gruppe_maskieren_51" data-name="Gruppe maskieren 51" transform="translate(-254 594)" clip-path="url(#clip-path)">
      <g id="Gruppe_6755" data-name="Gruppe 6755" transform="translate(0 268)">
        <rect id="Rechteck_3324" data-name="Rechteck 3324" width="400" height="53.333" transform="translate(6105 1028)"/>
        <rect id="Rechteck_3325" data-name="Rechteck 3325" width="400" height="53.333" transform="translate(6105 1081.333)" fill="red"/>
        <rect id="Rechteck_3326" data-name="Rechteck 3326" width="400" height="53.333" transform="translate(6105 1134.667)" fill="#f5cf00"/>
      </g>
    </g>
  </g>
</svg>
