<svg xmlns="http://www.w3.org/2000/svg" xmlns:xlink="http://www.w3.org/1999/xlink" width="180" height="160" viewBox="0 0 180 160">
  <defs>
    <clipPath id="clip-path">
      <path id="Differenzmenge_6" data-name="Differenzmenge 6" d="M100,160H0V80A80.591,80.591,0,0,1,1.625,63.877,79.562,79.562,0,0,1,13.663,35.271,80.234,80.234,0,0,1,48.86,6.287,79.6,79.6,0,0,1,63.877,1.625,80.591,80.591,0,0,1,80,0h20a80.591,80.591,0,0,1,16.123,1.625,79.562,79.562,0,0,1,28.606,12.037,80.234,80.234,0,0,1,28.984,35.2,79.6,79.6,0,0,1,4.661,15.017,80.781,80.781,0,0,1,0,32.246,79.562,79.562,0,0,1-12.037,28.606,80.234,80.234,0,0,1-35.2,28.984,79.6,79.6,0,0,1-15.017,4.661A80.591,80.591,0,0,1,100,160ZM80.912,15A64.7,64.7,0,0,0,44.57,26.1,65.19,65.19,0,0,0,21.02,54.7,64.592,64.592,0,0,0,15.912,80v65H99.088a64.7,64.7,0,0,0,36.342-11.1,65.19,65.19,0,0,0,23.55-28.6,64.914,64.914,0,0,0-5.993-61.643,65.19,65.19,0,0,0-28.6-23.55A64.592,64.592,0,0,0,99.088,15Z" transform="translate(0 0)"/>
    </clipPath>
  </defs>
  <g id="Gruppe_6758" data-name="Gruppe 6758" transform="translate(-6385 -1890)">
    <path id="Pfad_9230" data-name="Pfad 9230" d="M70.077,0H91.936C131.184,0,163,32.012,163,71.5S131.184,143,91.936,143H0V70.507C0,31.567,31.375,0,70.077,0Z" transform="translate(6394 1899)" fill="#fff"/>
    <path id="Pfad_9231" data-name="Pfad 9231" d="M-45.937-54.225h2.653q2.133,0,4.971-.019t5.584,0q2.745.019,4.489.094,9.72.3,15.86,3.694a21,21,0,0,1,9.015,9.3A31.232,31.232,0,0,1-.49-27.337,32.1,32.1,0,0,1-3.513-13.012a21.714,21.714,0,0,1-9.219,9.581Q-18.929,0-28.5,0H-45.937Zm12.688,10.162v33.9h5.12a15.121,15.121,0,0,0,6.975-1.687,12.939,12.939,0,0,0,5.4-5.475q2.1-3.787,2.1-10.162a21.41,21.41,0,0,0-1.781-9.338,11.973,11.973,0,0,0-5.009-5.456,15.5,15.5,0,0,0-7.606-1.781ZM8.377,0V-54.225h38.25l-.074,10.65H21.1v11.062h21.7v10.425H21.028v11.325l25.822.037V0Z" transform="translate(6474.938 1997)"/>
    <g id="Gruppe_maskieren_52" data-name="Gruppe maskieren 52" transform="translate(6385 1890)" clip-path="url(#clip-path)">
      <g id="Gruppe_6756" data-name="Gruppe 6756" transform="translate(0)">
        <rect id="Rechteck_3329" data-name="Rechteck 3329" width="397.79" height="53.333"/>
        <rect id="Rechteck_3330" data-name="Rechteck 3330" width="397.79" height="53.333" transform="translate(0 53.333)" fill="red"/>
        <rect id="Rechteck_3331" data-name="Rechteck 3331" width="397.79" height="53.333" transform="translate(0 106.667)" fill="#f5cf00"/>
      </g>
    </g>
  </g>
</svg>
